<svg width="37" height="65" viewBox="0 0 37 65" fill="none" xmlns="http://www.w3.org/2000/svg">
<path fill-rule="evenodd" clip-rule="evenodd" d="M15.25 0C12.2124 0 9.75 2.46243 9.75 5.5V8.5C9.75 9.11119 9.84969 9.69909 10.0337 10.2483C6.44619 12.0774 3.94624 15.7342 3.76104 19.9916C1.4739 21.7512 0 24.5156 0 27.6244V28.6576C0 30.39 0.646495 32.06 1.81295 33.3408L2.62292 34.2302C2.97293 34.6145 2.91237 35.2175 2.49292 35.5246C-0.713127 37.8715 -0.713129 42.6579 2.49292 45.0048C2.91237 45.3119 2.97293 45.9149 2.62292 46.2992L1.81295 47.1886C0.646492 48.4694 0 50.1394 0 51.8718V53.5945C0 59.8936 5.1064 65 11.4055 65H25.0945C31.3936 65 36.5 59.8936 36.5 53.5945V51.8718C36.5 50.1394 35.8535 48.4694 34.687 47.1886L33.8771 46.2992C33.5271 45.9149 33.5876 45.3119 34.0071 45.0048C37.2131 42.6579 37.2131 37.8715 34.0071 35.5246C33.5876 35.2175 33.5271 34.6145 33.8771 34.2302L34.687 33.3408C35.8535 32.06 36.5 30.39 36.5 28.6576V27.6244C36.5 24.5156 35.0261 21.7512 32.739 19.9916C32.5538 15.7342 30.0538 12.0774 26.4663 10.2483C26.6503 9.69909 26.75 9.11119 26.75 8.5V5.5C26.75 2.46243 24.2876 0 21.25 0H15.25ZM15.25 9H21.25C21.5261 9 21.75 8.77614 21.75 8.5V5.5C21.75 5.22386 21.5261 5 21.25 5H15.25C14.9739 5 14.75 5.22386 14.75 5.5V8.5C14.75 8.77614 14.9739 9 15.25 9ZM15.25 14C12.5461 14 10.2277 15.651 9.24816 18H9.62438H26.8756H27.2518C26.2723 15.651 23.954 14 21.25 14H15.25ZM5 27.6244C5 25.0704 7.07041 23 9.62438 23H26.8756C29.4296 23 31.5 25.0704 31.5 27.6244V28.6576C31.5 29.1446 31.3183 29.6141 30.9903 29.9742L30.1804 30.8636C27.829 33.4455 28.2358 37.4964 31.0537 39.5591C31.5309 39.9085 31.5309 40.6209 31.0537 40.9703C28.2358 43.033 27.829 47.0839 30.1804 49.6658L30.9903 50.5552C31.3183 50.9153 31.5 51.3848 31.5 51.8718V53.5945C31.5 57.1322 28.6322 60 25.0945 60H11.4055C7.86783 60 5 57.1322 5 53.5945V51.8718C5 51.3848 5.18174 50.9153 5.50966 50.5552L6.31963 49.6658C8.67102 47.0839 8.26418 43.033 5.44631 40.9703C4.96908 40.6209 4.96908 39.9085 5.44631 39.5591C8.26418 37.4964 8.67102 33.4455 6.31963 30.8636L5.50966 29.9742C5.18174 29.6141 5 29.1446 5 28.6576V27.6244Z" fill="#BBF246"/>
</svg>
